<?xml version="1.0" encoding="UTF-8"?><svg id="a" xmlns="http://www.w3.org/2000/svg" viewBox="0 0 218.8 104.69"><defs><style>.b,.c{fill:#386ab2;}.d{stroke-width:4px;}.d,.e{fill:none;stroke:#386ab2;stroke-miterlimit:10;}.c{font-family:HelveticaNeue-Bold, Helvetica Neue;font-size:78.24px;}.e{stroke-width:7px;}</style></defs><text class="c" transform="translate(69.52 67.05)"><tspan x="0" y="0">Cen</tspan></text><circle class="e" cx="31.26" cy="40.54" r="27.76"/><path class="d" d="M5.19,31.97c.08-1.57,.8-3.11,2.15-3.85,.08-.15,.17-.3,.27-.44,.04-.22,.09-.45,.17-.66,.98-2.7,2.44-5.02,4.73-6.78,1.18-.92,2.44-1.45,3.79-1.75,.08-.21,.14-.42,.17-.64,.29-2.4,1.67-4.48,4.07-4.91,.07-.05,.13-.1,.2-.15H3.11v21.64c.38-1.02,1.07-1.91,2.08-2.46Z"/><circle class="b" cx="31.26" cy="40.54" r="8.9"/></svg>