<?xml version="1.0" encoding="UTF-8"?><svg id="a" xmlns="http://www.w3.org/2000/svg" viewBox="0 0 221.32 104.69"><defs><style>.b{stroke-width:3px;}.b,.c,.d{fill:none;stroke:#386ab2;stroke-miterlimit:10;}.e,.f{fill:#386ab2;}.c{stroke-width:4px;}.f{font-family:HelveticaNeue-Bold, Helvetica Neue;font-size:78.24px;}.d{stroke-width:7px;}</style></defs><text class="f" transform="translate(72.04 67.05)"><tspan x="0" y="0">Cen</tspan></text><ellipse class="d" cx="33.78" cy="39.76" rx="27.76" ry="28.54"/><path class="c" d="M4.62,35.04c.1-2.06,1-4.08,2.71-5.06,.1-.2,.22-.39,.34-.57,.05-.29,.11-.59,.21-.87,1.23-3.54,3.07-6.58,5.95-8.9,1.49-1.2,3.07-1.91,4.77-2.3,.1-.28,.18-.56,.21-.84,.37-3.15,2.11-5.88,5.12-6.44,.08-.07,.16-.14,.25-.2H2v28.41c.48-1.35,1.35-2.51,2.62-3.23Z"/><circle class="b" cx="33.78" cy="40.54" r="8.9"/><polygon class="c" points="2.5 47.65 6.54 47.24 5.57 39.47 3.84 41 2.5 47.65"/><polygon class="e" points="0 49.91 8.11 58.02 4.77 49.08 0 49.91"/></svg>